<svg width="24" height="24" viewBox="0 0 24 24" fill="none" xmlns="http://www.w3.org/2000/svg">
<g clip-path="url(#clip0_4418_9403)">
<path d="M22 11.5V15.5C22 19 20 20.5 17 20.5H7C4 20.5 2 19 2 15.5V8.5C2 5 4 3.5 7 3.5H12" stroke="#333639" stroke-width="1.5" stroke-miterlimit="10" stroke-linecap="round" stroke-linejoin="round"/>
<path d="M7 9L10.13 11.5C11.16 12.32 12.85 12.32 13.88 11.5" stroke="#333639" stroke-width="1.5" stroke-miterlimit="10" stroke-linecap="round" stroke-linejoin="round"/>
<path d="M19.48 2.81945L19.76 3.38945C19.9 3.66945 20.25 3.92945 20.56 3.98945L20.94 4.04945C22.08 4.23945 22.35 5.07945 21.53 5.90945L21.18 6.25944C20.95 6.49944 20.82 6.95944 20.89 7.27944L20.94 7.48945C21.25 8.86945 20.52 9.39944 19.32 8.67944L19.06 8.52944C18.75 8.34944 18.25 8.34944 17.94 8.52944L17.68 8.67944C16.47 9.40944 15.74 8.86945 16.06 7.48945L16.1099 7.27944C16.1799 6.95944 16.05 6.49944 15.82 6.25944L15.47 5.90945C14.65 5.07945 14.92 4.23945 16.06 4.04945L16.44 3.98945C16.74 3.93945 17.1 3.66945 17.24 3.38945L17.52 2.81945C18.06 1.72945 18.94 1.72945 19.48 2.81945Z" stroke="#333639" stroke-width="1.5" stroke-linecap="round" stroke-linejoin="round"/>
</g>
<defs>
<clipPath id="clip0_4418_9403">
<rect width="24" height="24" fill="none"/>
</clipPath>
</defs>
</svg>