<svg width="24" height="24" viewBox="0 0 24 24" fill="none" xmlns="http://www.w3.org/2000/svg">
<g clip-path="url(#clip0_3261_13781)">
<path d="M7.41002 19.6101L6.42002 19.8401C5.71002 20.0001 5.16002 20.5601 4.99002 21.2701L4.76002 22.2601C4.74002 22.3601 4.58002 22.3601 4.56002 22.2601L4.33002 21.2701C4.17002 20.5601 3.61002 20.0101 2.90002 19.8401L1.91002 19.6101C1.81002 19.5901 1.81002 19.4301 1.91002 19.4101L2.90002 19.1801C3.61002 19.0201 4.16002 18.4601 4.33002 17.7501L4.56002 16.7601C4.58002 16.6601 4.74002 16.6601 4.76002 16.7601L4.99002 17.7501C5.15002 18.4601 5.71002 19.0101 6.42002 19.1801L7.41002 19.4101C7.51002 19.4301 7.51002 19.5901 7.41002 19.6101Z" stroke="#333639" stroke-width="1.5" stroke-miterlimit="10"/>
<path d="M9.16 10.87C9.06 10.86 8.94 10.86 8.83 10.87C6.45 10.79 4.56 8.84 4.56 6.44C4.56 4.04 6.54 2 9 2C11.46 2 13.44 3.99 13.44 6.44C13.43 8.84 11.54 10.79 9.16 10.87Z" stroke="#333639" stroke-width="1.5" stroke-linecap="round" stroke-linejoin="round"/>
<path d="M16.41 4C18.35 4 19.91 5.57 19.91 7.5C19.91 9.43 18.41 10.93 16.54 11C16.46 10.99 16.37 10.99 16.28 11" stroke="#333639" stroke-width="1.5" stroke-linecap="round" stroke-linejoin="round"/>
<path d="M9.00002 21.81C10.87 21.84 12.75 21.38 14.17 20.43C16.59 18.81 16.59 16.17 14.17 14.56C12.76 13.62 10.87 13.16 9.00002 13.19C8.00002 13.21 7.01002 13.36 6.10002 13.65C5.72002 13.77 5.36002 13.91 5.02002 14.08" stroke="#333639" stroke-width="1.5" stroke-linecap="round" stroke-linejoin="round"/>
<path d="M18.34 20C19.06 19.85 19.74 19.56 20.3 19.13C21.86 17.96 21.86 16.03 20.3 14.86C19.75 14.44 19.08 14.16 18.37 14" stroke="#333639" stroke-width="1.5" stroke-linecap="round" stroke-linejoin="round"/>
</g>
<defs>
<clipPath id="clip0_3261_13781">
<rect width="24" height="24" fill="none"/>
</clipPath>
</defs>
</svg>