<svg width="24" height="24" viewBox="0 0 24 24" fill="none" xmlns="http://www.w3.org/2000/svg">
<g clip-path="url(#clip0_3280_13107)">
<path d="M22.51 19.01L21.37 19.27C20.55 19.46 19.91 20.1 19.72 20.92L19.45 22.06C19.42 22.18 19.25 22.18 19.22 22.06L18.96 20.92C18.77 20.1 18.13 19.46 17.31 19.27L16.17 19C16.05 18.97 16.05 18.8 16.17 18.77L17.31 18.51C18.13 18.32 18.77 17.68 18.96 16.86L19.23 15.72C19.26 15.6 19.43 15.6 19.46 15.72L19.72 16.86C19.91 17.68 20.55 18.32 21.37 18.51L22.51 18.78C22.63 18.81 22.63 18.98 22.51 19.01Z" stroke="#333639" stroke-width="1.5" stroke-miterlimit="10"/>
<path d="M11.28 15.5299H8.52003C7.25003 15.5299 6.22003 14.4999 6.22003 13.2299V10.4699C6.22003 9.19992 7.25003 8.16992 8.52003 8.16992H11.28C12.55 8.16992 13.58 9.19992 13.58 10.4699V13.2299C13.58 14.4999 12.55 15.5299 11.28 15.5299Z" stroke="#333639" stroke-width="1.5" stroke-linecap="round" stroke-linejoin="round"/>
<path d="M13.58 10.9299V12.7699L15.62 14.1299C15.92 14.3299 16.34 14.1099 16.34 13.7399V9.93993C16.34 9.56993 15.93 9.34993 15.62 9.54993L13.58 10.9199V10.9299Z" stroke="#333639" stroke-width="1.5" stroke-linecap="round" stroke-linejoin="round"/>
<path d="M13.58 21.85H6.86002C3.85002 21.85 1.40002 19.41 1.40002 16.39V7.30998C1.40002 4.28998 3.84002 1.84998 6.86002 1.84998H15.7C18.71 1.84998 21.16 4.28998 21.16 7.30998V12.3" stroke="#333639" stroke-width="1.5" stroke-miterlimit="10" stroke-linecap="round"/>
</g>
<defs>
<clipPath id="clip0_3280_13107">
<rect width="24" height="24" fill="none"/>
</clipPath>
</defs>
</svg>