<svg width="24" height="24" viewBox="0 0 24 24" fill="none" xmlns="http://www.w3.org/2000/svg">
<g clip-path="url(#clip0_3261_13847)">
<path d="M22.28 6.90994L20.89 7.22994C19.9 7.45994 19.12 8.22994 18.89 9.22994L18.57 10.6199C18.54 10.7599 18.32 10.7599 18.29 10.6199L17.97 9.22994C17.74 8.23994 16.97 7.45994 15.97 7.22994L14.58 6.90994C14.44 6.87994 14.44 6.65994 14.58 6.62994L15.97 6.30994C16.96 6.07994 17.74 5.30994 17.97 4.30994L18.29 2.91994C18.32 2.77994 18.54 2.77994 18.57 2.91994L18.89 4.30994C19.12 5.29994 19.89 6.07994 20.89 6.30994L22.28 6.62994C22.42 6.65994 22.42 6.87994 22.28 6.90994Z" stroke="#333639" stroke-width="1.5" stroke-miterlimit="10"/>
<path d="M14.46 3.02005C13.02 1.90005 10.99 1.90005 9.55001 3.02005L3.55001 7.69005C2.58001 8.45005 2.01001 9.61005 2.01001 10.8501V18.0001C2.01001 20.2101 3.80001 22.0001 6.01001 22.0001H18.01C20.22 22.0001 22.01 20.2101 22.01 18.0001V10.8501" stroke="#333639" stroke-width="1.5" stroke-linecap="round"/>
<path d="M12 15V18" stroke="#333639" stroke-width="1.5" stroke-linecap="round"/>
</g>
<defs>
<clipPath id="clip0_3261_13847">
<rect width="24" height="24" fill="none"/>
</clipPath>
</defs>
</svg>