<svg width="24" height="24" viewBox="0 0 24 24" fill="none" xmlns="http://www.w3.org/2000/svg">
<g clip-path="url(#clip0_4418_9181)">
<path d="M9.19997 14.7805L11.78 17.0405C11.9 17.1505 12.09 17.1505 12.21 17.0405L14.79 14.7805C15.46 14.1905 15.55 13.1905 14.99 12.4905C14.43 11.7905 13.41 11.6605 12.7 12.2005L12 12.7405L11.29 12.2105C10.57 11.6705 9.55997 11.8005 8.99997 12.5005C8.43997 13.1905 8.52997 14.2005 9.19997 14.7805Z" stroke="#333639" stroke-width="1.5" stroke-linecap="round" stroke-linejoin="round"/>
<path d="M22 11V17C22 21 21 22 17 22H7C3 22 2 21 2 17V7C2 3 3 2 7 2H8.5C10 2 10.33 2.44 10.9 3.2L12.4 5.2C12.78 5.7 13 6 14 6H17C21 6 22 7 22 11Z" stroke="#333639" stroke-width="1.5" stroke-miterlimit="10"/>
</g>
<defs>
<clipPath id="clip0_4418_9181">
<rect width="24" height="24" fill="none"/>
</clipPath>
</defs>
</svg>