<svg width="24" height="24" viewBox="0 0 24 24" fill="none" xmlns="http://www.w3.org/2000/svg">
<g clip-path="url(#clip0_4418_10206)">
<path d="M14.5 2.30078C13.5 2.30078 12.6 3.10078 12.6 4.20078V8.80078C12.6 9.80078 13.4 10.7008 14.5 10.7008C15.5 10.7008 16.4 9.90078 16.4 8.80078V4.10078C16.4 3.10078 15.6 2.30078 14.5 2.30078Z" stroke="#333639" stroke-width="1.5" stroke-miterlimit="10" stroke-linecap="round" stroke-linejoin="round"/>
<path d="M18.6 10.6004H20.2C21.1 10.6004 21.8 9.90039 21.8 9.00039C21.8 8.10039 21.1 7.40039 20.2 7.40039C19.3 7.40039 18.6 8.10039 18.6 9.00039V10.6004Z" stroke="#333639" stroke-width="1.5" stroke-miterlimit="10" stroke-linecap="round" stroke-linejoin="round"/>
<path d="M2 9.20078C2 10.2008 2.8 11.1008 3.9 11.1008H8.5C9.5 11.1008 10.4 10.3008 10.4 9.20078C10.4 8.20078 9.6 7.30078 8.5 7.30078H3.9C2.8 7.40078 2 8.20078 2 9.20078Z" stroke="#333639" stroke-width="1.5" stroke-miterlimit="10" stroke-linecap="round" stroke-linejoin="round"/>
<path d="M10.4 5.1V3.6C10.4 2.7 9.69995 2 8.79995 2C7.89995 2 7.19995 2.7 7.19995 3.6C7.19995 4.5 7.89995 5.2 8.79995 5.2H10.4V5.1Z" stroke="#333639" stroke-width="1.5" stroke-miterlimit="10" stroke-linecap="round" stroke-linejoin="round"/>
<path d="M9.4 21.8004C10.4 21.8004 11.3 21.0004 11.3 19.9004V15.3004C11.3 14.3004 10.5 13.4004 9.4 13.4004C8.4 13.4004 7.5 14.2004 7.5 15.3004V19.9004C7.6 20.9004 8.4 21.8004 9.4 21.8004Z" stroke="#333639" stroke-width="1.5" stroke-miterlimit="10" stroke-linecap="round" stroke-linejoin="round"/>
<path d="M5.39995 13.4004H3.79995C2.89995 13.4004 2.19995 14.1004 2.19995 15.0004C2.19995 15.9004 2.89995 16.6004 3.79995 16.6004C4.69995 16.6004 5.39995 15.9004 5.39995 15.0004V13.4004Z" stroke="#333639" stroke-width="1.5" stroke-miterlimit="10" stroke-linecap="round" stroke-linejoin="round"/>
<path d="M22 14.8004C22 13.8004 21.2 12.9004 20.1 12.9004H15.5C14.5 12.9004 13.6 13.7004 13.6 14.8004C13.6 15.8004 14.4 16.7004 15.5 16.7004H20.1C21.1 16.7004 22 15.8004 22 14.8004Z" stroke="#333639" stroke-width="1.5" stroke-miterlimit="10" stroke-linecap="round" stroke-linejoin="round"/>
<path d="M13.6 18.8008V20.4008C13.6 21.3008 14.3 22.0008 15.2 22.0008C16.1 22.0008 16.8 21.3008 16.8 20.4008C16.8 19.5008 16.1 18.8008 15.2 18.8008H13.6Z" stroke="#333639" stroke-width="1.5" stroke-miterlimit="10" stroke-linecap="round" stroke-linejoin="round"/>
</g>
<defs>
<clipPath id="clip0_4418_10206">
<rect width="24" height="24" fill="none"/>
</clipPath>
</defs>
</svg>