<svg width="24" height="24" viewBox="0 0 24 24" fill="none" xmlns="http://www.w3.org/2000/svg">
<g clip-path="url(#clip0_3261_13775)">
<path d="M20.12 13.3L18.55 9.64C17.49 7.16 15.54 7.06 14.23 9.42L12.34 12.83C11.38 14.56 9.58999 14.71 8.34999 13.16L8.12999 12.88C6.83999 11.26 5.01999 11.46 4.08999 13.31L2.36999 16.76C1.15999 19.16 2.90999 21.99 5.58999 21.99H14.07" stroke="#333639" stroke-width="1.5" stroke-linecap="round" stroke-linejoin="round"/>
<path d="M6.96997 8C8.62997 8 9.96997 6.66 9.96997 5C9.96997 3.34 8.62997 2 6.96997 2C5.30997 2 3.96997 3.34 3.96997 5C3.96997 6.66 5.30997 8 6.96997 8Z" stroke="#333639" stroke-width="1.5" stroke-linecap="round" stroke-linejoin="round"/>
<path d="M22.39 19.2401L21.27 19.5001C20.47 19.6801 19.84 20.3101 19.66 21.1101L19.4 22.2301C19.37 22.3501 19.2 22.3501 19.17 22.2301L18.91 21.1101C18.73 20.3101 18.1 19.6801 17.3 19.5001L16.18 19.2401C16.06 19.2101 16.06 19.0401 16.18 19.0101L17.3 18.7501C18.1 18.5701 18.73 17.9401 18.91 17.1401L19.17 16.0201C19.2 15.9001 19.37 15.9001 19.4 16.0201L19.66 17.1401C19.84 17.9401 20.47 18.5701 21.27 18.7501L22.39 19.0101C22.51 19.0401 22.51 19.2101 22.39 19.2401Z" stroke="#333639" stroke-width="1.5" stroke-miterlimit="10"/>
</g>
<defs>
<clipPath id="clip0_3261_13775">
<rect width="24" height="24" fill="none"/>
</clipPath>
</defs>
</svg>