<svg width="24" height="24" viewBox="0 0 24 24" fill="none" xmlns="http://www.w3.org/2000/svg">
<g clip-path="url(#clip0_4418_9855)">
<path d="M4.41003 16.75C4.17003 19.64 6.35003 22 9.25003 22H14.04C17.3 22 19.54 19.37 19 16.15C18.43 12.77 15.17 10 11.74 10C8.02003 10 4.72003 13.04 4.41003 16.75Z" stroke="#333639" stroke-width="1.5" stroke-linecap="round" stroke-linejoin="round"/>
<path d="M10.47 7.5C11.8507 7.5 12.97 6.38071 12.97 5C12.97 3.61929 11.8507 2.5 10.47 2.5C9.08926 2.5 7.96997 3.61929 7.96997 5C7.96997 6.38071 9.08926 7.5 10.47 7.5Z" stroke="#333639" stroke-width="1.5" stroke-linecap="round" stroke-linejoin="round"/>
<path d="M17.3 8.69922C18.4046 8.69922 19.3 7.80379 19.3 6.69922C19.3 5.59465 18.4046 4.69922 17.3 4.69922C16.1955 4.69922 15.3 5.59465 15.3 6.69922C15.3 7.80379 16.1955 8.69922 17.3 8.69922Z" stroke="#333639" stroke-width="1.5" stroke-linecap="round" stroke-linejoin="round"/>
<path d="M21 12.6992C21.8284 12.6992 22.5 12.0276 22.5 11.1992C22.5 10.3708 21.8284 9.69922 21 9.69922C20.1716 9.69922 19.5 10.3708 19.5 11.1992C19.5 12.0276 20.1716 12.6992 21 12.6992Z" stroke="#333639" stroke-width="1.5" stroke-linecap="round" stroke-linejoin="round"/>
<path d="M3.96997 10.6992C5.07454 10.6992 5.96997 9.80379 5.96997 8.69922C5.96997 7.59465 5.07454 6.69922 3.96997 6.69922C2.8654 6.69922 1.96997 7.59465 1.96997 8.69922C1.96997 9.80379 2.8654 10.6992 3.96997 10.6992Z" stroke="#333639" stroke-width="1.5" stroke-linecap="round" stroke-linejoin="round"/>
</g>
<defs>
<clipPath id="clip0_4418_9855">
<rect width="24" height="24" fill="none"/>
</clipPath>
</defs>
</svg>