<svg width="24" height="24" viewBox="0 0 24 24" fill="none" xmlns="http://www.w3.org/2000/svg">
<g clip-path="url(#clip0_4418_9806)">
<path d="M10.07 2.81984L3.14004 8.36989C2.36004 8.98989 1.86002 10.2999 2.03002 11.2799L3.36001 19.2399C3.60001 20.6599 4.96002 21.81 6.40002 21.81H17.6C19.03 21.81 20.4 20.6499 20.64 19.2399L21.97 11.2799C22.13 10.2999 21.63 8.98989 20.86 8.36989L13.93 2.82985C12.86 1.96985 11.13 1.96984 10.07 2.81984Z" stroke="#333639" stroke-width="1.5" stroke-linecap="round" stroke-linejoin="round"/>
<path d="M9.88 14.3802C11.15 13.1702 12.85 13.1702 14.12 14.3802" stroke="#333639" stroke-width="1.5" stroke-linecap="round" stroke-linejoin="round"/>
<path d="M16.24 12.2592C15.7 11.7292 15.1 11.3192 14.48 11.0192C12.89 10.2592 11.11 10.2592 9.51001 11.0192C8.89001 11.3192 8.3 11.7292 7.75 12.2592" stroke="#333639" stroke-width="1.5" stroke-linecap="round" stroke-linejoin="round"/>
<path d="M11.9955 17H12.0045" stroke="#333639" stroke-width="2" stroke-linecap="round" stroke-linejoin="round"/>
</g>
<defs>
<clipPath id="clip0_4418_9806">
<rect width="24" height="24" fill="none"/>
</clipPath>
</defs>
</svg>