<svg width="24" height="24" viewBox="0 0 24 24" fill="none" xmlns="http://www.w3.org/2000/svg">
<g clip-path="url(#clip0_4418_9777)">
<path d="M9 22H15C20 22 22 20 22 15V9C22 4 20 2 15 2H9C4 2 2 4 2 9V15C2 20 4 22 9 22Z" stroke="#333639" stroke-width="1.5" stroke-linecap="round" stroke-linejoin="round"/>
<path d="M17.9 9.04875C15.72 8.82875 13.52 8.71875 11.33 8.71875C10.03 8.71875 8.72997 8.78875 7.43997 8.91875L6.09998 9.04875" stroke="#333639" stroke-width="1.5" stroke-linecap="round" stroke-linejoin="round"/>
<path d="M9.70996 8.38945L9.84996 7.52945C9.94996 6.90945 10.03 6.43945 11.14 6.43945H12.86C13.97 6.43945 14.0499 6.92945 14.1499 7.52945L14.2899 8.37946" stroke="#333639" stroke-width="1.5" stroke-linecap="round" stroke-linejoin="round"/>
<path d="M16.49 9.12891L16.06 15.7289C15.99 16.7589 15.93 17.5589 14.1 17.5589H9.89C8.06 17.5589 7.99999 16.7589 7.92999 15.7289L7.5 9.12891" stroke="#333639" stroke-width="1.5" stroke-linecap="round" stroke-linejoin="round"/>
</g>
<defs>
<clipPath id="clip0_4418_9777">
<rect width="24" height="24" fill="none"/>
</clipPath>
</defs>
</svg>