<svg width="24" height="24" viewBox="0 0 24 24" fill="none" xmlns="http://www.w3.org/2000/svg">
<g clip-path="url(#clip0_3261_13854)">
<path d="M21.17 18.45L19.78 18.77C18.79 19 18.01 19.77 17.78 20.77L17.46 22.16C17.43 22.3 17.21 22.3 17.18 22.16L16.86 20.77C16.63 19.78 15.86 19 14.86 18.77L13.47 18.45C13.33 18.42 13.33 18.2 13.47 18.17L14.86 17.85C15.85 17.62 16.63 16.85 16.86 15.85L17.18 14.46C17.21 14.32 17.43 14.32 17.46 14.46L17.78 15.85C18.01 16.84 18.78 17.62 19.78 17.85L21.17 18.17C21.31 18.2 21.31 18.42 21.17 18.45Z" stroke="#ffffff" stroke-width="1.5" stroke-miterlimit="10"/>
<path d="M20.6801 13.25V7.26001" stroke="#ffffff" stroke-width="1.5" stroke-linecap="round" stroke-linejoin="round"/>
<path d="M3.43994 7.26001V18C3.43994 20.21 5.22994 22 7.43994 22H11.9999" stroke="#ffffff" stroke-width="1.5" stroke-linecap="round" stroke-linejoin="round"/>
<path d="M1 8.86996L10.52 2.50996C11.55 1.81996 12.89 1.83996 13.9 2.53996L23 8.86996" stroke="#ffffff" stroke-width="1.5" stroke-linecap="round" stroke-linejoin="round"/>
</g>
<defs>
<clipPath id="clip0_3261_13854">
<rect width="24" height="24" fill="none"/>
</clipPath>
</defs>
</svg>