<svg width="24" height="24" viewBox="0 0 24 24" fill="none" xmlns="http://www.w3.org/2000/svg">
<g clip-path="url(#clip0_4418_9521)">
<path d="M9 11V10C9 8.34 9.5 7 12 7C14.5 7 15 8.34 15 10V11" stroke="#333639" stroke-width="1.5" stroke-linecap="round" stroke-linejoin="round"/>
<path d="M12 14.6004C12.3314 14.6004 12.6 14.3318 12.6 14.0004C12.6 13.669 12.3314 13.4004 12 13.4004C11.6686 13.4004 11.4 13.669 11.4 14.0004C11.4 14.3318 11.6686 14.6004 12 14.6004Z" stroke="#333639" stroke-width="1.5" stroke-linecap="round" stroke-linejoin="round"/>
<path d="M14.5 17H9.5C7.5 17 7 16.5 7 14.5V13.5C7 11.5 7.5 11 9.5 11H14.5C16.5 11 17 11.5 17 13.5V14.5C17 16.5 16.5 17 14.5 17Z" stroke="#333639" stroke-width="1.5" stroke-linecap="round" stroke-linejoin="round"/>
<path d="M12 22C17.5228 22 22 17.5228 22 12C22 6.47715 17.5228 2 12 2C6.47715 2 2 6.47715 2 12C2 17.5228 6.47715 22 12 22Z" stroke="#333639" stroke-width="1.5" stroke-linecap="round" stroke-linejoin="round"/>
</g>
<defs>
<clipPath id="clip0_4418_9521">
<rect width="24" height="24" fill="none"/>
</clipPath>
</defs>
</svg>