<svg width="24" height="24" viewBox="0 0 20 20" fill="none" xmlns="http://www.w3.org/2000/svg">
<g clip-path="url(#clip0_4418_9572)">
<path d="M12.6 10.5804V13.3104C12.6 15.5904 11.69 16.5004 9.41 16.5004H6.69C4.42 16.5004 3.5 15.5904 3.5 13.3104V10.5804C3.5 8.31039 4.41 7.40039 6.69 7.40039H9.42C11.69 7.40039 12.6 8.31039 12.6 10.5804Z" stroke="#333639" stroke-width="1.5" stroke-linecap="round" stroke-linejoin="round"/>
<path d="M16.5 6.68V9.41C16.5 11.69 15.59 12.6 13.31 12.6H12.6V10.58C12.6 8.31 11.69 7.4 9.41002 7.4H7.40002V6.68C7.40002 4.4 8.31002 3.5 10.59 3.5H13.32C15.59 3.5 16.5 4.41 16.5 6.68Z" stroke="#333639" stroke-width="1.5" stroke-linecap="round" stroke-linejoin="round"/>
<path d="M20 13C20 16.87 16.87 20 13 20L14.05 18.25" stroke="#333639" stroke-width="1.5" stroke-linecap="round" stroke-linejoin="round"/>
<path d="M0 7C0 3.13 3.13 0 7 0L5.95 1.75" stroke="#333639" stroke-width="1.5" stroke-linecap="round" stroke-linejoin="round"/>
</g>
<defs>
<clipPath id="clip0_4418_9572">
<rect width="20" height="20" fill="none"/>
</clipPath>
</defs>
</svg>