<svg width="24" height="24" viewBox="0 0 24 24" fill="none" xmlns="http://www.w3.org/2000/svg">
<g clip-path="url(#clip0_4418_10142)">
<path d="M19.9999 3.5H5.49995C5.19995 3.5 4.89995 3.6 4.69995 3.9L3.19995 5.9C2.69995 6.6 3.19995 7.5 3.99995 7.5H18.4999C18.7999 7.5 19.0999 7.4 19.2999 7.1L20.7999 5.1C21.2999 4.4 20.7999 3.5 19.9999 3.5Z" stroke="#333639" stroke-width="1.5" stroke-miterlimit="10"/>
<path d="M3.99995 10H18.4999C18.7999 10 19.0999 10.1 19.2999 10.4L20.7999 12.4C21.2999 13.1 20.7999 14 19.9999 14H5.49995C5.19995 14 4.89995 13.9 4.69995 13.6L3.19995 11.6C2.69995 10.9 3.19995 10 3.99995 10Z" stroke="#333639" stroke-width="1.5" stroke-miterlimit="10"/>
<path d="M19.9999 16.5H5.49995C5.19995 16.5 4.89995 16.6 4.69995 16.9L3.19995 18.9C2.69995 19.6 3.19995 20.5 3.99995 20.5H18.4999C18.7999 20.5 19.0999 20.4 19.2999 20.1L20.7999 18.1C21.2999 17.4 20.7999 16.5 19.9999 16.5Z" stroke="#333639" stroke-width="1.5" stroke-miterlimit="10"/>
</g>
<defs>
<clipPath id="clip0_4418_10142">
<rect width="24" height="24" fill="none"/>
</clipPath>
</defs>
</svg>