<svg width="24" height="24" viewBox="0 0 24 24" fill="none" xmlns="http://www.w3.org/2000/svg">
<g clip-path="url(#clip0_4418_9396)">
<path d="M17 9C17 12.87 13.64 16 9.5 16L8.57001 17.12L8.02 17.78C7.55 18.34 6.65 18.22 6.34 17.55L5 14.6C3.18 13.32 2 11.29 2 9C2 5.13 5.36 2 9.5 2C12.52 2 15.13 3.67001 16.3 6.07001C16.75 6.96001 17 7.95 17 9Z" stroke="#333639" stroke-width="1.5" stroke-linecap="round" stroke-linejoin="round"/>
<path d="M22.0001 12.8603C22.0001 15.1503 20.8201 17.1803 19.0001 18.4603L17.6601 21.4103C17.3501 22.0803 16.4501 22.2103 15.9801 21.6403L14.5001 19.8603C12.0801 19.8603 9.92007 18.7903 8.57007 17.1203L9.50006 16.0003C13.6401 16.0003 17.0001 12.8703 17.0001 9.00031C17.0001 7.95031 16.7501 6.96031 16.3001 6.07031C19.5701 6.82031 22.0001 9.58029 22.0001 12.8603Z" stroke="#333639" stroke-width="1.5" stroke-linecap="round" stroke-linejoin="round"/>
<path d="M7 9H12" stroke="#333639" stroke-width="1.5" stroke-linecap="round" stroke-linejoin="round"/>
</g>
<defs>
<clipPath id="clip0_4418_9396">
<rect width="24" height="24" fill="none"/>
</clipPath>
</defs>
</svg>