<svg width="24" height="24" viewBox="0 0 24 24" fill="none" xmlns="http://www.w3.org/2000/svg">
<g clip-path="url(#clip0_4418_9708)">
<path d="M21.93 6.76099L18.56 20.291C18.32 21.301 17.42 22.001 16.38 22.001H3.24001C1.73001 22.001 0.650023 20.5209 1.10002 19.0709L5.31001 5.55103C5.60001 4.61103 6.47003 3.96094 7.45003 3.96094H19.75C20.7 3.96094 21.49 4.54094 21.82 5.34094C22.01 5.77094 22.05 6.26099 21.93 6.76099Z" stroke="#333639" stroke-width="1.5" stroke-miterlimit="10"/>
<path d="M16 22H20.78C22.07 22 23.08 20.91 22.99 19.62L22 6" stroke="#333639" stroke-width="1.5" stroke-miterlimit="10" stroke-linecap="round" stroke-linejoin="round"/>
<path d="M9.67993 6.38049L10.7199 2.06055" stroke="#333639" stroke-width="1.5" stroke-miterlimit="10" stroke-linecap="round" stroke-linejoin="round"/>
<path d="M16.38 6.39075L17.32 2.05078" stroke="#333639" stroke-width="1.5" stroke-miterlimit="10" stroke-linecap="round" stroke-linejoin="round"/>
<path d="M7.69995 12H15.7" stroke="#333639" stroke-width="1.5" stroke-miterlimit="10" stroke-linecap="round" stroke-linejoin="round"/>
<path d="M6.69995 16H14.7" stroke="#333639" stroke-width="1.5" stroke-miterlimit="10" stroke-linecap="round" stroke-linejoin="round"/>
</g>
<defs>
<clipPath id="clip0_4418_9708">
<rect width="24" height="24" fill="none"/>
</clipPath>
</defs>
</svg>