<svg width="24" height="24" viewBox="0 0 24 24" fill="none" xmlns="http://www.w3.org/2000/svg">
<g clip-path="url(#clip0_4418_9265)">
<path d="M11.97 22C17.4928 22 21.97 17.5228 21.97 12C21.97 6.47715 17.4928 2 11.97 2C6.44712 2 1.96997 6.47715 1.96997 12C1.96997 17.5228 6.44712 22 11.97 22Z" stroke="#333639" stroke-width="1.5" stroke-linecap="round" stroke-linejoin="round"/>
<path d="M10.73 16.2295H13.27C15.39 16.2295 16.23 15.3795 16.23 13.2695V10.7295C16.23 8.60953 15.38 7.76953 13.27 7.76953H10.73C8.61002 7.76953 7.77002 8.61953 7.77002 10.7295V13.2695C7.77002 15.3795 8.62002 16.2295 10.73 16.2295Z" stroke="#333639" stroke-width="1.5" stroke-linecap="round" stroke-linejoin="round"/>
</g>
<defs>
<clipPath id="clip0_4418_9265">
<rect width="24" height="24" fill="none"/>
</clipPath>
</defs>
</svg>