<svg width="24" height="24" viewBox="0 0 24 24" fill="none" xmlns="http://www.w3.org/2000/svg">
<g clip-path="url(#clip0_3261_13830)">
<path d="M7.2 7.76007C7.2 7.98007 7.01 8.17007 6.79 8.14007C6.57 8.14007 6.38 7.95007 6.38 7.73007C6.38 7.51007 6.57 7.32007 6.79 7.32007C6.99584 7.32007 7.2 7.51763 7.2 7.73007" stroke="#333639" stroke-width="1.5" stroke-linecap="round" stroke-linejoin="round"/>
<path d="M22.6899 13.79L21.6099 14.04C20.8399 14.22 20.2299 14.82 20.0499 15.6L19.7999 16.68C19.7799 16.79 19.6099 16.79 19.5799 16.68L19.3299 15.6C19.1499 14.83 18.5499 14.22 17.7699 14.04L16.6899 13.79C16.5799 13.77 16.5799 13.6 16.6899 13.57L17.7699 13.32C18.5399 13.14 19.1499 12.54 19.3299 11.76L19.5799 10.68C19.5999 10.57 19.7699 10.57 19.7999 10.68L20.0499 11.76C20.2299 12.53 20.8299 13.14 21.6099 13.32L22.6899 13.57C22.7999 13.59 22.7999 13.76 22.6899 13.79Z" stroke="#333639" stroke-width="1.5" stroke-miterlimit="10"/>
<path d="M17.56 18.86L15.46 20.96C14.29 22.13 12.39 22.13 11.22 20.96L2.09997 11.84C1.53997 11.28 1.21997 10.51 1.21997 9.72004V7.26004C1.21997 6.46004 1.53997 5.70004 2.09997 5.14004L4.16997 3.07004C4.72997 2.51004 5.47997 2.20004 6.26997 2.19004L8.95997 2.17004C9.76997 2.17004 10.55 2.49004 11.12 3.07004L17.27 9.33004" stroke="#333639" stroke-width="1.5" stroke-linecap="round" stroke-linejoin="round"/>
</g>
<defs>
<clipPath id="clip0_3261_13830">
<rect width="24" height="24" fill="none"/>
</clipPath>
</defs>
</svg>