<svg width="24" height="24" viewBox="0 0 24 24" fill="none" xmlns="http://www.w3.org/2000/svg">
<g clip-path="url(#clip0_4418_9697)">
<path d="M14 2H9C4 2 2 4 2 9V15C2 20 4 22 9 22" stroke="#333639" stroke-width="1.5" stroke-linecap="round" stroke-linejoin="round"/>
<path d="M22 10V13" stroke="#333639" stroke-width="1.5" stroke-linecap="round" stroke-linejoin="round"/>
<path d="M22 10H18C15 10 14 9 14 6V2L22 10Z" stroke="#333639" stroke-width="1.5" stroke-linecap="round" stroke-linejoin="round"/>
<path d="M13.7601 18.2598C11.4101 18.4298 11.4101 21.8298 13.7601 21.9998H19.3201C19.9901 21.9998 20.6501 21.7498 21.1401 21.2998C22.7901 19.8598 21.9101 16.9798 19.7401 16.7098C18.9601 12.0198 12.1801 13.7998 13.7801 18.2698" stroke="#333639" stroke-width="1.5" stroke-miterlimit="10" stroke-linecap="round" stroke-linejoin="round"/>
</g>
<defs>
<clipPath id="clip0_4418_9697">
<rect width="24" height="24" fill="none"/>
</clipPath>
</defs>
</svg>