<svg width="24" height="24" viewBox="0 0 24 24" fill="none" xmlns="http://www.w3.org/2000/svg">
<g clip-path="url(#clip0_4418_10025)">
<path d="M10 16.9493H6.21C2.84 16.9493 2 16.1093 2 12.7393V6.7393C2 3.3693 2.84 2.5293 6.21 2.5293H16.74C20.11 2.5293 20.95 3.3693 20.95 6.7393" stroke="#333639" stroke-width="1.5" stroke-linecap="round" stroke-linejoin="round"/>
<path d="M10 21.4692V16.9492" stroke="#333639" stroke-width="1.5" stroke-linecap="round" stroke-linejoin="round"/>
<path d="M2 12.9492H10" stroke="#333639" stroke-width="1.5" stroke-linecap="round" stroke-linejoin="round"/>
<path d="M6.73999 21.4707H9.99999" stroke="#333639" stroke-width="1.5" stroke-linecap="round" stroke-linejoin="round"/>
<path d="M22 12.7998V18.5098C22 20.8798 21.41 21.4698 19.04 21.4698H15.49C13.12 21.4698 12.53 20.8798 12.53 18.5098V12.7998C12.53 10.4298 13.12 9.83984 15.49 9.83984H19.04C21.41 9.83984 22 10.4298 22 12.7998Z" stroke="#333639" stroke-width="1.5" stroke-linecap="round" stroke-linejoin="round"/>
<path d="M17.2445 18.25H17.2535" stroke="#333639" stroke-width="2" stroke-linecap="round" stroke-linejoin="round"/>
</g>
<defs>
<clipPath id="clip0_4418_10025">
<rect width="24" height="24" fill="none"/>
</clipPath>
</defs>
</svg>