<svg width="24" height="24" viewBox="0 0 24 24" fill="none" xmlns="http://www.w3.org/2000/svg">
<g clip-path="url(#clip0_3186_7184)">
<path d="M11.5 21C16.75 21 21 16.75 21 11.5C21 6.25 16.75 2 11.5 2C6.25 2 2 6.25 2 11.5C2 16.75 6.25 21 11.5 21Z" stroke="#333639" stroke-width="1.5" stroke-linecap="round" stroke-linejoin="round"/>
<path d="M22 22L20 20" stroke="#333639" stroke-width="1.5" stroke-linecap="round" stroke-linejoin="round"/>
<path d="M8.24001 11.6399C7.86001 10.4499 8.31001 8.95995 9.56001 8.55995C10.22 8.33995 11.03 8.52995 11.5 9.16995C11.93 8.50995 12.78 8.35995 13.43 8.55995C14.69 8.95995 15.13 10.4499 14.75 11.6399C14.15 13.5399 12.07 14.5199 11.5 14.5199C10.93 14.5199 8.85001 13.5599 8.24001 11.6399Z" stroke="#333639" stroke-width="1.5" stroke-linecap="round" stroke-linejoin="round"/>
</g>
<defs>
<clipPath id="clip0_3186_7184">
<rect width="24" height="24" fill="none"/>
</clipPath>
</defs>
</svg>