<svg width="24" height="24" viewBox="0 0 24 24" fill="none" xmlns="http://www.w3.org/2000/svg">
<g clip-path="url(#clip0_4418_9857)">
<path d="M17.79 10.4698V17.7898C17.79 20.1198 15.9 21.9998 13.58 21.9998H6.21C3.89 21.9998 2 20.1098 2 17.7898V10.4698C2 8.13977 3.89 6.25977 6.21 6.25977H13.58C15.9 6.25977 17.79 8.14977 17.79 10.4698Z" stroke="#333639" stroke-width="1.5" stroke-linecap="round" stroke-linejoin="round"/>
<path d="M5.5 4V2.25" stroke="#333639" stroke-width="1.5" stroke-linecap="round" stroke-linejoin="round"/>
<path d="M9.5 4V2.25" stroke="#333639" stroke-width="1.5" stroke-linecap="round" stroke-linejoin="round"/>
<path d="M13.5 4V2.25" stroke="#333639" stroke-width="1.5" stroke-linecap="round" stroke-linejoin="round"/>
<path d="M22 13.1592C22 15.4792 20.11 17.3692 17.79 17.3692V8.94922C20.11 8.94922 22 10.8292 22 13.1592Z" stroke="#333639" stroke-width="1.5" stroke-linecap="round" stroke-linejoin="round"/>
<path d="M2 12H17.51" stroke="#333639" stroke-width="1.5" stroke-linecap="round" stroke-linejoin="round"/>
</g>
<defs>
<clipPath id="clip0_4418_9857">
<rect width="24" height="24" fill="none"/>
</clipPath>
</defs>
</svg>