<svg width="24" height="24" viewBox="0 0 24 24" fill="none" xmlns="http://www.w3.org/2000/svg">
<g clip-path="url(#clip0_4418_9542)">
<path d="M20.59 10.5505V7.12055C20.59 5.89055 19.65 4.53055 18.5 4.10055L13.51 2.23055C12.68 1.92055 11.32 1.92055 10.49 2.23055L5.50003 4.11055C4.35003 4.54055 3.41003 5.90055 3.41003 7.12055V14.5505C3.41003 15.7305 4.19003 17.2805 5.14003 17.9905L9.44003 21.2005C10.14 21.7405 11.07 22.0005 12 22.0005" stroke="#333639" stroke-width="1.5" stroke-linecap="round" stroke-linejoin="round"/>
<path d="M16 20C18.2091 20 20 18.2091 20 16C20 13.7909 18.2091 12 16 12C13.7909 12 12 13.7909 12 16C12 18.2091 13.7909 20 16 20Z" stroke="#333639" stroke-width="1.5" stroke-linecap="round" stroke-linejoin="round"/>
<path d="M20.9955 21H21.0045" stroke="#333639" stroke-width="2" stroke-linecap="round" stroke-linejoin="round"/>
</g>
<defs>
<clipPath id="clip0_4418_9542">
<rect width="24" height="24" fill="none"/>
</clipPath>
</defs>
</svg>