<svg width="24" height="24" viewBox="0 0 24 24" fill="none" xmlns="http://www.w3.org/2000/svg">
<g clip-path="url(#clip0_4418_9600)">
<path d="M16.97 12.25V16.75C16.97 20.5 15.47 22 11.72 22H7.21997C3.46997 22 1.96997 20.5 1.96997 16.75V12.25C1.96997 8.5 3.46997 7 7.21997 7H11.72C15.47 7 16.97 8.5 16.97 12.25Z" stroke="#333639" stroke-width="1.5" stroke-linecap="round" stroke-linejoin="round"/>
<path d="M21.97 5.85V9.15C21.97 11.9 20.87 13 18.12 13H16.97V12.25C16.97 8.5 15.47 7 11.72 7H10.97V5.85C10.97 3.1 12.07 2 14.82 2H18.12C20.87 2 21.97 3.1 21.97 5.85Z" stroke="#333639" stroke-width="1.5" stroke-linecap="round" stroke-linejoin="round"/>
</g>
<defs>
<clipPath id="clip0_4418_9600">
<rect width="24" height="24" fill="none"/>
</clipPath>
</defs>
</svg>