<svg width="24" height="24" viewBox="0 0 24 24" fill="none" xmlns="http://www.w3.org/2000/svg">
<g clip-path="url(#clip0_4418_9739)">
<path d="M5 15V8" stroke="#333639" stroke-width="1.5" stroke-linecap="round" stroke-linejoin="round"/>
<path d="M5.25 22C7.04493 22 8.5 20.5449 8.5 18.75C8.5 16.9551 7.04493 15.5 5.25 15.5C3.45507 15.5 2 16.9551 2 18.75C2 20.5449 3.45507 22 5.25 22Z" stroke="#333639" stroke-width="1.5" stroke-linecap="round" stroke-linejoin="round"/>
<path d="M5 8C6.65685 8 8 6.65685 8 5C8 3.34315 6.65685 2 5 2C3.34315 2 2 3.34315 2 5C2 6.65685 3.34315 8 5 8Z" stroke="#333639" stroke-width="1.5" stroke-linecap="round" stroke-linejoin="round"/>
<path d="M19 8C20.6569 8 22 6.65685 22 5C22 3.34315 20.6569 2 19 2C17.3431 2 16 3.34315 16 5C16 6.65685 17.3431 8 19 8Z" stroke="#333639" stroke-width="1.5" stroke-linecap="round" stroke-linejoin="round"/>
<path d="M5.13 15.0009C5.58 13.2509 7.18 11.9509 9.07 11.9609L12.5 11.9709C15.12 11.9809 17.35 10.3009 18.17 7.96094" stroke="#333639" stroke-width="1.5" stroke-linecap="round" stroke-linejoin="round"/>
</g>
<defs>
<clipPath id="clip0_4418_9739">
<rect width="24" height="24" fill="none"/>
</clipPath>
</defs>
</svg>